<svg width="40" height="30" viewBox="0 0 40 30" fill="none" xmlns="http://www.w3.org/2000/svg">
<path d="M3.52059 7.14286L18.7187 2.88927L17.9139 1.22119C17.3873 0.13694 16.1029 -0.310807 15.0455 0.229123L1.43994 7.14286H3.52059Z" fill="#24CCA7"/>
<path d="M23.2625 2.85718C23.0793 2.85718 22.8962 2.8845 22.713 2.93916L19.2414 3.97757L8.6394 7.1429H20.6734H25.9182L25.2688 4.53776C25.0191 3.52212 24.1782 2.85718 23.2625 2.85718Z" fill="#24CCA7"/>
<path d="M26.5873 8.03705H26.2032H25.6811H25.1589H21.1735H6.52891H4.60864H2.99158H2.69175H1.68782C1.15553 8.03705 0.680516 8.28104 0.370578 8.66542C0.229085 8.84257 0.12128 9.04645 0.0606401 9.27039C0.0235822 9.41077 0 9.55784 0 9.70825V9.90879V11.814V28.3287C0 29.2512 0.754632 29.9999 1.68445 29.9999H26.5839C27.5137 29.9999 28.2684 29.2512 28.2684 28.3287V23.6661H18.2729C16.6929 23.6661 15.4093 22.3926 15.4093 20.8251V19.2942V18.7762V18.2581V17.1083C15.4093 16.3396 15.7193 15.641 16.2212 15.1296C16.6659 14.675 17.2622 14.3675 17.9292 14.2907C18.0404 14.2773 18.155 14.2706 18.2695 14.2706H26.8669H27.3891H27.9113H28.2684V9.70825C28.2717 8.78574 27.5171 8.03705 26.5873 8.03705Z" fill="#4A56E2"/>
<path d="M29.4508 15.8683C29.2824 15.7146 29.0836 15.5976 28.8613 15.5207C28.6894 15.4639 28.5075 15.4305 28.3155 15.4305H28.2717H28.238H27.7158H25.8326H18.2728C17.343 15.4305 16.5884 16.1792 16.5884 17.1017V17.9339V18.452V18.9701V20.8218C16.5884 21.7443 17.343 22.493 18.2728 22.493H28.2717H28.3155C28.5075 22.493 28.6894 22.4595 28.8613 22.4027C29.0836 22.3292 29.2824 22.2089 29.4508 22.0551C29.7877 21.751 29.9999 21.3098 29.9999 20.8218V17.1017C29.9999 16.6137 29.7877 16.1725 29.4508 15.8683ZM21.7899 19.2943C21.7899 19.7555 21.4126 20.1299 20.9477 20.1299H20.3885C19.9236 20.1299 19.5463 19.7555 19.5463 19.2943V18.7395C19.5463 18.4721 19.6709 18.2348 19.8697 18.0843C20.0145 17.974 20.1931 17.9039 20.3885 17.9039H20.53H20.9477C21.4126 17.9039 21.7899 18.2782 21.7899 18.7395V19.2943Z" fill="#4A56E2"/>

</svg>
